<svg width="18" height="20" viewBox="0 0 18 20" fill="none" xmlns="http://www.w3.org/2000/svg">
<path d="M2.76817 10.1406L4.6666 9.44916C4.7252 9.42576 4.79551 9.41404 4.86578 9.41404H17.0298C17.358 9.41404 17.6158 9.67181 17.6158 9.99998V18.2422C17.6158 19.2148 16.8307 20 15.858 20H4.13922C3.16653 20 2.38141 19.2148 2.38141 18.2422V10.6913C2.38141 10.4453 2.53379 10.2226 2.76817 10.1406Z" fill="#FC1A40"/>
<path d="M2.38141 10.6913V18.2422C2.38141 19.2148 3.16653 20 4.13922 20H9.9986V9.41404H4.86578C4.79547 9.41404 4.72516 9.42576 4.6666 9.44916L2.76817 10.1406C2.53379 10.2226 2.38141 10.4453 2.38141 10.6913Z" fill="#C60034"/>
<path d="M2.59235 3.81984C2.79153 3.01125 3.38922 2.37848 4.19782 2.12063C4.99469 1.87449 5.8502 2.05031 6.47126 2.61277L7.83067 3.80813L8.10016 2.0152C8.22907 1.19488 8.75641 0.503438 9.54153 0.175352C9.69387 0.116719 9.84622 0.0698442 9.99856 0.0464067C10.6431 -0.0824995 11.3111 0.0581254 11.8502 0.456602C12.565 0.972227 12.9282 1.83941 12.8111 2.70656C12.6822 3.57375 12.0962 4.31203 11.2642 4.605L9.99856 5.06203L8.43997 5.63625C8.42825 5.63625 8.42825 5.63625 8.42825 5.63625L5.72122 6.63231C5.45172 6.72609 5.17047 6.77301 4.90094 6.77301C4.32665 6.77301 3.76418 6.56199 3.31887 6.16359C2.66266 5.57766 2.38141 4.67527 2.59235 3.81984Z" fill="#FE9923"/>
<path d="M3.31891 6.16359C3.76422 6.56199 4.32672 6.77301 4.90098 6.77301C5.17047 6.77301 5.45172 6.72609 5.72125 6.63231L8.42828 5.63625C8.42828 5.63625 8.42828 5.63625 8.44 5.63625L9.9986 5.06203V0.0463676C9.84625 0.0698442 9.69391 0.11668 9.54157 0.175313C8.75645 0.503399 8.22906 1.19484 8.1002 2.01516L7.8307 3.80809L6.47129 2.61274C5.85024 2.05027 4.99473 1.87445 4.19785 2.12059C3.38926 2.37844 2.7916 3.01121 2.59239 3.81981C2.38141 4.67527 2.66266 5.57766 3.31891 6.16359Z" fill="#FE8821"/>
<path d="M0.37752 9.14445L1.17439 11.3476C1.26818 11.582 1.49084 11.7226 1.72521 11.7226C1.79553 11.7226 1.86584 11.7109 1.92439 11.6875L7.98303 9.48434L8.53377 7.66793L9.99861 7.99602L11.2876 8.28898L17.3463 6.08586C17.651 5.96871 17.8033 5.62883 17.6978 5.33586L16.8892 3.13281C16.7369 2.6875 16.4087 2.33586 15.9869 2.13668C15.565 1.9375 15.0845 1.91402 14.6392 2.07809L9.99857 3.76559L9.68213 3.88273C9.68213 3.88273 8.41654 6.17965 8.38135 6.17965C8.35787 6.17965 7.854 5.8984 7.36182 5.62883C6.86975 5.3593 6.37752 5.07809 6.37752 5.07809L1.43225 6.88273C0.986933 7.0468 0.63537 7.37496 0.436192 7.79684C0.236895 8.21867 0.213495 8.69918 0.37752 9.14445Z" fill="#FF3E75"/>
<path d="M0.377502 9.14446L1.17438 11.3476C1.26817 11.582 1.49082 11.7226 1.7252 11.7226C1.79551 11.7226 1.86582 11.7109 1.92438 11.6875L7.98301 9.48434L8.53375 7.66794L9.9986 7.99602V3.76559L9.68215 3.88274C9.68215 3.88274 8.41656 6.17966 8.38137 6.17966C8.35789 6.17966 7.85403 5.89841 7.36184 5.62884C6.86973 5.35931 6.3775 5.07809 6.3775 5.07809L1.43223 6.88274C0.986917 7.04681 0.635354 7.37497 0.436174 7.79684C0.236877 8.21868 0.213479 8.69919 0.377502 9.14446Z" fill="#FC1A40"/>
<path d="M11.7564 9.41404V20H8.24078V9.41404H11.7564Z" fill="#FCBF29"/>
<path d="M9.68219 3.88274L9.99864 4.74993L11.2877 8.28903L9.99864 8.75782L8.53379 9.28516L7.98305 9.48434L6.3775 5.07809L9.68219 3.88274Z" fill="#FCBF29"/>
<path d="M8.2406 9.41404H9.99841V20H8.2406V9.41404Z" fill="#FE9923"/>
<path d="M6.3775 5.07809L7.98301 9.48434L8.53375 9.28512L9.9986 8.75778V4.74993L9.68219 3.88274L6.3775 5.07809Z" fill="#FE9923"/>
</svg>
